# xmcd
#
# Track frame offsets:
#	150
#	13192
#	29343
#	42218
#	51223
#	69038
#	81341
#	92032
#	103659
#	116725
#	128248
#	142857
#	159970
#	178201
#	190894
#	203457
#	214200
#	223175
#
# Disc length: 3135 seconds
#
# Revision: 2
# Processed by: cddbd v1.5.2PL0 Copyright (c) Steve Scherf et al.
# Submitted via: audiograbber 1.83.01
#
DISCID=fd0c3d12
DTITLE=Various Artist - Greatest Hits Of The 60's [CD6)
DYEAR=2003
DGENRE=Pop
TTITLE0=The Hollies - Bus Stop
TTITLE1=Chris Farlowe - Think
TTITLE2=Tommy James and The Shondells - Mony Mony
TTITLE3=Buddy Knox - She's Gone
TTITLE4=Bobby Goldsboro - Honey
TTITLE5=Highwaymen - Michael Row The Boat Ashore
TTITLE6=Paul Jones - I've Been A Bad Bad Boy
TTITLE7=Freddie and The Dreamers - I Understand (Just How You Feel)
TTITLE8=The Shadows - Apache
TTITLE9=Manfred Mann - Pretty Flamingo
TTITLE10=The Herd - From The Underworld
TTITLE11=Simon Dupree and The Big Sound - Kites
TTITLE12=The Family Dogg - Way Of Life
TTITLE13=Fleetwood Mac - Man Of The World
TTITLE14=Billy J. Kramer and The Dakotas - Little Children
TTITLE15=Jonathan King - Everyone's Gone To The Moon
TTITLE16=Herman's Hermits - Wonderful World
TTITLE17=Gerry and The Pacemakers - You'll Never Walk Alone
EXTD=
EXTT0=
EXTT1=
EXTT2=
EXTT3=
EXTT4=
EXTT5=
EXTT6=
EXTT7=
EXTT8=
EXTT9=
EXTT10=
EXTT11=
EXTT12=
EXTT13=
EXTT14=
EXTT15=
EXTT16=
EXTT17=
PLAYORDER=
